<mxfile host="app.diagrams.net" agent="Mozilla/5.0 (Macintosh; Intel Mac OS X 10_15_7) AppleWebKit/537.36 (KHTML, like Gecko) Chrome/129.0.0.0 Safari/537.36" version="24.7.17">
  <diagram id="C5RBs43oDa-KdzZeNtuy" name="Page-1">
    <mxGraphModel dx="984" dy="574" grid="1" gridSize="10" guides="1" tooltips="1" connect="1" arrows="1" fold="1" page="1" pageScale="1" pageWidth="827" pageHeight="1169" math="0" shadow="0">
      <root>
        <mxCell id="WIyWlLk6GJQsqaUBKTNV-0" />
        <mxCell id="WIyWlLk6GJQsqaUBKTNV-1" parent="WIyWlLk6GJQsqaUBKTNV-0" />
        <mxCell id="zVThBrhbd2Cr7wd_Nm7z-0" value="&lt;b&gt;RHR Process Flow Diagram&lt;/b&gt;" style="text;strokeColor=none;align=center;fillColor=none;html=1;verticalAlign=middle;whiteSpace=wrap;rounded=0;" parent="WIyWlLk6GJQsqaUBKTNV-1" vertex="1">
          <mxGeometry x="280" y="20" width="230" height="30" as="geometry" />
        </mxCell>
        <mxCell id="wM9_794fkviGeyk4OZOB-3" value="Activity/Process Flow RHR APP" style="swimlane;childLayout=stackLayout;resizeParent=1;resizeParentMax=0;startSize=20;html=1;" parent="WIyWlLk6GJQsqaUBKTNV-1" vertex="1">
          <mxGeometry x="15" y="70" width="760" height="910" as="geometry" />
        </mxCell>
        <mxCell id="wM9_794fkviGeyk4OZOB-4" value="User" style="swimlane;startSize=20;html=1;" parent="wM9_794fkviGeyk4OZOB-3" vertex="1">
          <mxGeometry y="20" width="190" height="890" as="geometry">
            <mxRectangle y="20" width="40" height="610" as="alternateBounds" />
          </mxGeometry>
        </mxCell>
        <mxCell id="WIyWlLk6GJQsqaUBKTNV-3" value="Start app" style="rounded=1;whiteSpace=wrap;html=1;fontSize=12;glass=0;strokeWidth=1;shadow=0;" parent="wM9_794fkviGeyk4OZOB-4" vertex="1">
          <mxGeometry x="62.5" y="120" width="75" height="30" as="geometry" />
        </mxCell>
        <mxCell id="wM9_794fkviGeyk4OZOB-56" value="" style="ellipse;html=1;shape=startState;fillColor=#000000;strokeColor=#ff0000;" parent="wM9_794fkviGeyk4OZOB-4" vertex="1">
          <mxGeometry x="85" y="30" width="30" height="30" as="geometry" />
        </mxCell>
        <mxCell id="wM9_794fkviGeyk4OZOB-57" value="" style="edgeStyle=orthogonalEdgeStyle;html=1;verticalAlign=bottom;endArrow=open;endSize=8;strokeColor=#ff0000;rounded=0;" parent="wM9_794fkviGeyk4OZOB-4" source="wM9_794fkviGeyk4OZOB-56" edge="1">
          <mxGeometry relative="1" as="geometry">
            <mxPoint x="100" y="120" as="targetPoint" />
          </mxGeometry>
        </mxCell>
        <mxCell id="wM9_794fkviGeyk4OZOB-1" value="" style="ellipse;html=1;shape=endState;fillColor=strokeColor;" parent="wM9_794fkviGeyk4OZOB-4" vertex="1">
          <mxGeometry x="62.5" y="740" width="30" height="30" as="geometry" />
        </mxCell>
        <mxCell id="wM9_794fkviGeyk4OZOB-5" value="Watch" style="swimlane;startSize=20;html=1;" parent="wM9_794fkviGeyk4OZOB-3" vertex="1">
          <mxGeometry x="190" y="20" width="210" height="890" as="geometry" />
        </mxCell>
        <mxCell id="WIyWlLk6GJQsqaUBKTNV-7" value="Record daily resting heart rate" style="rounded=1;whiteSpace=wrap;html=1;fontSize=12;glass=0;strokeWidth=1;shadow=0;" parent="wM9_794fkviGeyk4OZOB-5" vertex="1">
          <mxGeometry x="40" y="90" width="95" height="25" as="geometry" />
        </mxCell>
        <mxCell id="wM9_794fkviGeyk4OZOB-35" value="" style="endArrow=open;endFill=1;endSize=12;html=1;rounded=0;entryX=0.411;entryY=-0.1;entryDx=0;entryDy=0;entryPerimeter=0;exitX=0.5;exitY=1;exitDx=0;exitDy=0;" parent="wM9_794fkviGeyk4OZOB-5" source="WIyWlLk6GJQsqaUBKTNV-7" target="wM9_794fkviGeyk4OZOB-36" edge="1">
          <mxGeometry width="160" relative="1" as="geometry">
            <mxPoint x="72" y="90" as="sourcePoint" />
            <mxPoint x="72.5" y="120" as="targetPoint" />
          </mxGeometry>
        </mxCell>
        <mxCell id="wM9_794fkviGeyk4OZOB-36" value="Send data to app" style="rounded=1;whiteSpace=wrap;html=1;fontSize=12;glass=0;strokeWidth=1;shadow=0;" parent="wM9_794fkviGeyk4OZOB-5" vertex="1">
          <mxGeometry x="40" y="160" width="90" height="30" as="geometry" />
        </mxCell>
        <mxCell id="zVThBrhbd2Cr7wd_Nm7z-32" value="Alert" style="rounded=1;whiteSpace=wrap;html=1;fontSize=12;glass=0;strokeWidth=1;shadow=0;" parent="wM9_794fkviGeyk4OZOB-5" vertex="1">
          <mxGeometry x="45" y="720" width="120" height="40" as="geometry" />
        </mxCell>
        <mxCell id="wM9_794fkviGeyk4OZOB-20" value="" style="endArrow=open;startArrow=none;endFill=0;startFill=0;endSize=8;html=1;verticalAlign=bottom;labelBackgroundColor=none;strokeWidth=1;rounded=0;entryX=0;entryY=0.5;entryDx=0;entryDy=0;exitX=1;exitY=0.25;exitDx=0;exitDy=0;" parent="wM9_794fkviGeyk4OZOB-3" source="WIyWlLk6GJQsqaUBKTNV-3" target="WIyWlLk6GJQsqaUBKTNV-7" edge="1">
          <mxGeometry width="160" relative="1" as="geometry">
            <mxPoint x="125" y="104.5" as="sourcePoint" />
            <mxPoint x="205" y="105" as="targetPoint" />
          </mxGeometry>
        </mxCell>
        <mxCell id="wM9_794fkviGeyk4OZOB-22" value="" style="endArrow=open;startArrow=none;endFill=0;startFill=0;endSize=8;html=1;verticalAlign=bottom;labelBackgroundColor=none;strokeWidth=1;rounded=0;entryX=0;entryY=0.5;entryDx=0;entryDy=0;exitX=1;exitY=0.5;exitDx=0;exitDy=0;" parent="wM9_794fkviGeyk4OZOB-3" source="wM9_794fkviGeyk4OZOB-36" target="wM9_794fkviGeyk4OZOB-37" edge="1">
          <mxGeometry width="160" relative="1" as="geometry">
            <mxPoint x="320" y="158.5" as="sourcePoint" />
            <mxPoint x="460" y="159" as="targetPoint" />
          </mxGeometry>
        </mxCell>
        <mxCell id="wM9_794fkviGeyk4OZOB-86" value="" style="endArrow=open;endFill=1;endSize=12;html=1;rounded=0;exitX=0;exitY=0.5;exitDx=0;exitDy=0;entryX=1;entryY=0.5;entryDx=0;entryDy=0;" parent="wM9_794fkviGeyk4OZOB-3" source="wM9_794fkviGeyk4OZOB-85" target="zVThBrhbd2Cr7wd_Nm7z-32" edge="1">
          <mxGeometry width="160" relative="1" as="geometry">
            <mxPoint x="567.5" y="640" as="sourcePoint" />
            <mxPoint x="290" y="750" as="targetPoint" />
          </mxGeometry>
        </mxCell>
        <mxCell id="wM9_794fkviGeyk4OZOB-17" value="App Logic" style="swimlane;startSize=20;html=1;" parent="wM9_794fkviGeyk4OZOB-3" vertex="1">
          <mxGeometry x="400" y="20" width="360" height="890" as="geometry" />
        </mxCell>
        <mxCell id="wM9_794fkviGeyk4OZOB-37" value="Receive data" style="rounded=1;whiteSpace=wrap;html=1;fontSize=12;glass=0;strokeWidth=1;shadow=0;" parent="wM9_794fkviGeyk4OZOB-17" vertex="1">
          <mxGeometry x="77.5" y="120" width="95" height="30" as="geometry" />
        </mxCell>
        <mxCell id="wM9_794fkviGeyk4OZOB-54" value="30-day baseline?" style="rhombus;whiteSpace=wrap;html=1;shadow=0;fontFamily=Helvetica;fontSize=12;align=center;strokeWidth=1;spacing=6;spacingTop=-4;" parent="wM9_794fkviGeyk4OZOB-17" vertex="1">
          <mxGeometry x="172.5" y="180" width="75" height="60" as="geometry" />
        </mxCell>
        <mxCell id="wM9_794fkviGeyk4OZOB-58" value="" style="endArrow=open;endFill=1;endSize=12;html=1;rounded=0;entryX=0;entryY=0;entryDx=0;entryDy=0;exitX=0.5;exitY=1;exitDx=0;exitDy=0;" parent="wM9_794fkviGeyk4OZOB-17" source="wM9_794fkviGeyk4OZOB-37" target="wM9_794fkviGeyk4OZOB-54" edge="1">
          <mxGeometry width="160" relative="1" as="geometry">
            <mxPoint x="60" y="160" as="sourcePoint" />
            <mxPoint x="220" y="160" as="targetPoint" />
          </mxGeometry>
        </mxCell>
        <mxCell id="wM9_794fkviGeyk4OZOB-60" value="No" style="html=1;verticalAlign=bottom;labelBackgroundColor=none;endArrow=open;endFill=0;rounded=0;" parent="wM9_794fkviGeyk4OZOB-17" source="wM9_794fkviGeyk4OZOB-54" edge="1">
          <mxGeometry width="160" relative="1" as="geometry">
            <mxPoint x="25" y="260" as="sourcePoint" />
            <mxPoint x="55" y="260" as="targetPoint" />
          </mxGeometry>
        </mxCell>
        <mxCell id="wM9_794fkviGeyk4OZOB-61" value="Collect data" style="rounded=1;whiteSpace=wrap;html=1;fontSize=12;glass=0;strokeWidth=1;shadow=0;" parent="wM9_794fkviGeyk4OZOB-17" vertex="1">
          <mxGeometry x="5" y="260" width="95" height="20" as="geometry" />
        </mxCell>
        <mxCell id="wM9_794fkviGeyk4OZOB-63" value="Yes" style="html=1;verticalAlign=bottom;labelBackgroundColor=none;endArrow=open;endFill=0;rounded=0;entryX=1;entryY=0;entryDx=0;entryDy=0;exitX=1;exitY=1;exitDx=0;exitDy=0;" parent="wM9_794fkviGeyk4OZOB-17" source="wM9_794fkviGeyk4OZOB-54" target="wM9_794fkviGeyk4OZOB-74" edge="1">
          <mxGeometry width="160" relative="1" as="geometry">
            <mxPoint x="180" y="223" as="sourcePoint" />
            <mxPoint x="121" y="260" as="targetPoint" />
          </mxGeometry>
        </mxCell>
        <mxCell id="wM9_794fkviGeyk4OZOB-64" value="14 day baseline?" style="rhombus;whiteSpace=wrap;html=1;shadow=0;fontFamily=Helvetica;fontSize=12;align=center;strokeWidth=1;spacing=6;spacingTop=-4;" parent="wM9_794fkviGeyk4OZOB-17" vertex="1">
          <mxGeometry x="30" y="300" width="57.5" height="50" as="geometry" />
        </mxCell>
        <mxCell id="wM9_794fkviGeyk4OZOB-66" value="" style="endArrow=open;endFill=1;endSize=12;html=1;rounded=0;entryX=0.5;entryY=0;entryDx=0;entryDy=0;exitX=0.5;exitY=1;exitDx=0;exitDy=0;" parent="wM9_794fkviGeyk4OZOB-17" source="wM9_794fkviGeyk4OZOB-61" target="wM9_794fkviGeyk4OZOB-64" edge="1">
          <mxGeometry width="160" relative="1" as="geometry">
            <mxPoint x="35" y="290" as="sourcePoint" />
            <mxPoint x="125" y="290" as="targetPoint" />
          </mxGeometry>
        </mxCell>
        <mxCell id="wM9_794fkviGeyk4OZOB-68" value="No" style="html=1;verticalAlign=bottom;labelBackgroundColor=none;endArrow=open;endFill=0;rounded=0;exitX=0;exitY=1;exitDx=0;exitDy=0;" parent="wM9_794fkviGeyk4OZOB-17" source="wM9_794fkviGeyk4OZOB-64" edge="1">
          <mxGeometry width="160" relative="1" as="geometry">
            <mxPoint x="33.73975409836066" y="339.139344262295" as="sourcePoint" />
            <mxPoint x="10" y="400" as="targetPoint" />
          </mxGeometry>
        </mxCell>
        <mxCell id="wM9_794fkviGeyk4OZOB-69" value="Yes" style="html=1;verticalAlign=bottom;labelBackgroundColor=none;endArrow=open;endFill=0;rounded=0;exitX=0;exitY=1;exitDx=0;exitDy=0;" parent="wM9_794fkviGeyk4OZOB-17" edge="1">
          <mxGeometry width="160" relative="1" as="geometry">
            <mxPoint x="77.505" y="330" as="sourcePoint" />
            <mxPoint x="130" y="400" as="targetPoint" />
          </mxGeometry>
        </mxCell>
        <mxCell id="zVThBrhbd2Cr7wd_Nm7z-25" value="Collect 14 days" style="rounded=1;whiteSpace=wrap;html=1;fontSize=12;glass=0;strokeWidth=1;shadow=0;" parent="wM9_794fkviGeyk4OZOB-17" vertex="1">
          <mxGeometry y="400" width="85" height="20" as="geometry" />
        </mxCell>
        <mxCell id="wM9_794fkviGeyk4OZOB-70" value="Establish prelim baseline" style="rounded=1;whiteSpace=wrap;html=1;fontSize=12;glass=0;strokeWidth=1;shadow=0;" parent="wM9_794fkviGeyk4OZOB-17" vertex="1">
          <mxGeometry x="100" y="400" width="85" height="20" as="geometry" />
        </mxCell>
        <mxCell id="wM9_794fkviGeyk4OZOB-72" value="" style="endArrow=open;endFill=1;endSize=12;html=1;rounded=0;exitX=0.588;exitY=1.05;exitDx=0;exitDy=0;exitPerimeter=0;entryX=0;entryY=0.25;entryDx=0;entryDy=0;" parent="wM9_794fkviGeyk4OZOB-17" source="zVThBrhbd2Cr7wd_Nm7z-25" target="wM9_794fkviGeyk4OZOB-77" edge="1">
          <mxGeometry width="160" relative="1" as="geometry">
            <mxPoint x="-90" y="420" as="sourcePoint" />
            <mxPoint x="50" y="460" as="targetPoint" />
          </mxGeometry>
        </mxCell>
        <mxCell id="wM9_794fkviGeyk4OZOB-73" value="" style="endArrow=open;endFill=1;endSize=12;html=1;rounded=0;exitX=0.588;exitY=1.05;exitDx=0;exitDy=0;exitPerimeter=0;entryX=0.108;entryY=0.1;entryDx=0;entryDy=0;entryPerimeter=0;" parent="wM9_794fkviGeyk4OZOB-17" target="wM9_794fkviGeyk4OZOB-74" edge="1">
          <mxGeometry width="160" relative="1" as="geometry">
            <mxPoint x="139" y="420" as="sourcePoint" />
            <mxPoint x="160" y="459" as="targetPoint" />
          </mxGeometry>
        </mxCell>
        <mxCell id="wM9_794fkviGeyk4OZOB-74" value="Compare DRHR to baseline" style="rounded=1;whiteSpace=wrap;html=1;fontSize=12;glass=0;strokeWidth=1;shadow=0;" parent="wM9_794fkviGeyk4OZOB-17" vertex="1">
          <mxGeometry x="206.25" y="460" width="100" height="30" as="geometry" />
        </mxCell>
        <mxCell id="zVThBrhbd2Cr7wd_Nm7z-27" value="Abnormal reading?" style="rhombus;whiteSpace=wrap;html=1;shadow=0;fontFamily=Helvetica;fontSize=12;align=center;strokeWidth=1;spacing=6;spacingTop=-4;" parent="wM9_794fkviGeyk4OZOB-17" vertex="1">
          <mxGeometry x="206.25" y="510" width="50" height="50" as="geometry" />
        </mxCell>
        <mxCell id="wM9_794fkviGeyk4OZOB-75" value="" style="endArrow=open;endFill=1;endSize=12;html=1;rounded=0;exitX=0.5;exitY=1;exitDx=0;exitDy=0;" parent="wM9_794fkviGeyk4OZOB-17" source="wM9_794fkviGeyk4OZOB-74" target="zVThBrhbd2Cr7wd_Nm7z-27" edge="1">
          <mxGeometry width="160" relative="1" as="geometry">
            <mxPoint x="202" y="490" as="sourcePoint" />
            <mxPoint x="203" y="510" as="targetPoint" />
          </mxGeometry>
        </mxCell>
        <mxCell id="wM9_794fkviGeyk4OZOB-76" value="Yes" style="html=1;verticalAlign=bottom;labelBackgroundColor=none;endArrow=open;endFill=0;rounded=0;exitX=0;exitY=1;exitDx=0;exitDy=0;entryX=0.75;entryY=0;entryDx=0;entryDy=0;" parent="wM9_794fkviGeyk4OZOB-17" target="wM9_794fkviGeyk4OZOB-82" edge="1">
          <mxGeometry width="160" relative="1" as="geometry">
            <mxPoint x="245.625" y="540" as="sourcePoint" />
            <mxPoint x="279.37" y="580" as="targetPoint" />
          </mxGeometry>
        </mxCell>
        <mxCell id="wM9_794fkviGeyk4OZOB-78" value="3rd day?" style="rhombus;whiteSpace=wrap;html=1;shadow=0;fontFamily=Helvetica;fontSize=12;align=center;strokeWidth=1;spacing=6;spacingTop=-4;" parent="wM9_794fkviGeyk4OZOB-17" vertex="1">
          <mxGeometry x="210" y="630" width="50" height="50" as="geometry" />
        </mxCell>
        <mxCell id="wM9_794fkviGeyk4OZOB-79" value="Yes" style="html=1;verticalAlign=bottom;labelBackgroundColor=none;endArrow=open;endFill=0;rounded=0;exitX=0;exitY=1;exitDx=0;exitDy=0;entryX=0.375;entryY=-0.05;entryDx=0;entryDy=0;entryPerimeter=0;" parent="wM9_794fkviGeyk4OZOB-17" target="wM9_794fkviGeyk4OZOB-85" edge="1">
          <mxGeometry width="160" relative="1" as="geometry">
            <mxPoint x="247.505" y="670" as="sourcePoint" />
            <mxPoint x="281.25" y="710" as="targetPoint" />
          </mxGeometry>
        </mxCell>
        <mxCell id="wM9_794fkviGeyk4OZOB-81" value="No" style="html=1;verticalAlign=bottom;labelBackgroundColor=none;endArrow=open;endFill=0;rounded=0;exitX=0;exitY=1;exitDx=0;exitDy=0;entryX=0.25;entryY=0;entryDx=0;entryDy=0;" parent="wM9_794fkviGeyk4OZOB-17" source="zVThBrhbd2Cr7wd_Nm7z-27" target="wM9_794fkviGeyk4OZOB-77" edge="1">
          <mxGeometry x="-0.0154" width="160" relative="1" as="geometry">
            <mxPoint x="197" y="550" as="sourcePoint" />
            <mxPoint x="180" y="600" as="targetPoint" />
            <mxPoint as="offset" />
          </mxGeometry>
        </mxCell>
        <mxCell id="wM9_794fkviGeyk4OZOB-82" value="Set count" style="rounded=1;whiteSpace=wrap;html=1;fontSize=12;glass=0;strokeWidth=1;shadow=0;" parent="wM9_794fkviGeyk4OZOB-17" vertex="1">
          <mxGeometry x="247.5" y="570" width="87.5" height="20" as="geometry" />
        </mxCell>
        <mxCell id="wM9_794fkviGeyk4OZOB-83" value="" style="endArrow=open;endFill=1;endSize=12;html=1;rounded=0;exitX=0.577;exitY=1.15;exitDx=0;exitDy=0;exitPerimeter=0;entryX=0.38;entryY=0.02;entryDx=0;entryDy=0;entryPerimeter=0;" parent="wM9_794fkviGeyk4OZOB-17" source="wM9_794fkviGeyk4OZOB-82" target="wM9_794fkviGeyk4OZOB-78" edge="1">
          <mxGeometry width="160" relative="1" as="geometry">
            <mxPoint x="262" y="610" as="sourcePoint" />
            <mxPoint x="262" y="630" as="targetPoint" />
          </mxGeometry>
        </mxCell>
        <mxCell id="wM9_794fkviGeyk4OZOB-77" value="Continue monitoring" style="rounded=1;whiteSpace=wrap;html=1;fontSize=12;glass=0;strokeWidth=1;shadow=0;" parent="wM9_794fkviGeyk4OZOB-17" vertex="1">
          <mxGeometry x="45" y="830" width="80" height="30" as="geometry" />
        </mxCell>
        <mxCell id="wM9_794fkviGeyk4OZOB-84" value="No" style="html=1;verticalAlign=bottom;labelBackgroundColor=none;endArrow=open;endFill=0;rounded=0;exitX=0.12;exitY=0.7;exitDx=0;exitDy=0;entryX=0.5;entryY=0;entryDx=0;entryDy=0;exitPerimeter=0;" parent="wM9_794fkviGeyk4OZOB-17" source="wM9_794fkviGeyk4OZOB-78" target="wM9_794fkviGeyk4OZOB-77" edge="1">
          <mxGeometry width="160" relative="1" as="geometry">
            <mxPoint x="244.5" y="660" as="sourcePoint" />
            <mxPoint x="238" y="690" as="targetPoint" />
          </mxGeometry>
        </mxCell>
        <mxCell id="wM9_794fkviGeyk4OZOB-85" value="Trigger alert" style="rounded=1;whiteSpace=wrap;html=1;fontSize=12;glass=0;strokeWidth=1;shadow=0;" parent="wM9_794fkviGeyk4OZOB-17" vertex="1">
          <mxGeometry x="270" y="730" width="90" height="20" as="geometry" />
        </mxCell>
        <mxCell id="wM9_794fkviGeyk4OZOB-88" value="" style="endArrow=open;endFill=1;endSize=12;html=1;rounded=0;exitX=0;exitY=0;exitDx=0;exitDy=0;entryX=1;entryY=0.5;entryDx=0;entryDy=0;" parent="wM9_794fkviGeyk4OZOB-17" source="wM9_794fkviGeyk4OZOB-85" target="wM9_794fkviGeyk4OZOB-77" edge="1">
          <mxGeometry width="160" relative="1" as="geometry">
            <mxPoint x="250" y="730" as="sourcePoint" />
            <mxPoint x="-40" y="720" as="targetPoint" />
          </mxGeometry>
        </mxCell>
        <mxCell id="wM9_794fkviGeyk4OZOB-91" value="Normalizing?" style="rhombus;whiteSpace=wrap;html=1;shadow=0;fontFamily=Helvetica;fontSize=12;align=center;strokeWidth=1;spacing=6;spacingTop=-4;" parent="wM9_794fkviGeyk4OZOB-17" vertex="1">
          <mxGeometry x="266.25" y="820" width="50" height="50" as="geometry" />
        </mxCell>
        <mxCell id="wM9_794fkviGeyk4OZOB-92" value="" style="endArrow=open;endFill=1;endSize=12;html=1;rounded=0;entryX=0;entryY=0;entryDx=0;entryDy=0;exitX=1;exitY=0.5;exitDx=0;exitDy=0;" parent="wM9_794fkviGeyk4OZOB-17" source="wM9_794fkviGeyk4OZOB-77" target="wM9_794fkviGeyk4OZOB-91" edge="1">
          <mxGeometry width="160" relative="1" as="geometry">
            <mxPoint x="170" y="820" as="sourcePoint" />
            <mxPoint x="150.5" y="870" as="targetPoint" />
          </mxGeometry>
        </mxCell>
        <mxCell id="wM9_794fkviGeyk4OZOB-93" value="Yes" style="html=1;verticalAlign=bottom;labelBackgroundColor=none;endArrow=open;endFill=0;rounded=0;exitX=0.5;exitY=0;exitDx=0;exitDy=0;entryX=0.344;entryY=1.025;entryDx=0;entryDy=0;entryPerimeter=0;" parent="wM9_794fkviGeyk4OZOB-17" source="wM9_794fkviGeyk4OZOB-91" target="wM9_794fkviGeyk4OZOB-85" edge="1">
          <mxGeometry width="160" relative="1" as="geometry">
            <mxPoint x="247.495" y="761" as="sourcePoint" />
            <mxPoint x="303.99" y="820" as="targetPoint" />
          </mxGeometry>
        </mxCell>
        <mxCell id="wM9_794fkviGeyk4OZOB-94" value="No" style="html=1;verticalAlign=bottom;labelBackgroundColor=none;endArrow=open;endFill=0;rounded=0;exitX=0.5;exitY=1;exitDx=0;exitDy=0;entryX=0.5;entryY=1;entryDx=0;entryDy=0;" parent="wM9_794fkviGeyk4OZOB-17" source="wM9_794fkviGeyk4OZOB-91" target="wM9_794fkviGeyk4OZOB-77" edge="1">
          <mxGeometry width="160" relative="1" as="geometry">
            <mxPoint x="233" y="860" as="sourcePoint" />
            <mxPoint x="150" y="985" as="targetPoint" />
          </mxGeometry>
        </mxCell>
        <mxCell id="wM9_794fkviGeyk4OZOB-95" value="" style="endArrow=open;endFill=1;endSize=12;html=1;rounded=0;exitX=0;exitY=0.5;exitDx=0;exitDy=0;entryX=1;entryY=0;entryDx=0;entryDy=0;" parent="wM9_794fkviGeyk4OZOB-3" source="zVThBrhbd2Cr7wd_Nm7z-32" target="wM9_794fkviGeyk4OZOB-1" edge="1">
          <mxGeometry width="160" relative="1" as="geometry">
            <mxPoint x="345" y="760" as="sourcePoint" />
            <mxPoint x="30" y="760" as="targetPoint" />
          </mxGeometry>
        </mxCell>
      </root>
    </mxGraphModel>
  </diagram>
</mxfile>
